<?xml version="1.0" standalone="no"?>
<!DOCTYPE svg PUBLIC "-//W3C//DTD SVG 20010904//EN"
 "http://www.w3.org/TR/2001/REC-SVG-20010904/DTD/svg10.dtd">
<svg version="1.0" xmlns="http://www.w3.org/2000/svg"
 width="119.000000pt" height="119.000000pt" viewBox="0 0 119.000000 119.000000"
 preserveAspectRatio="xMidYMid meet">

<g transform="translate(0.000000,119.000000) scale(0.100000,-0.100000)"
fill="#000000" stroke="none">
<path d="M0 625 c0 -311 2 -565 5 -565 2 0 51 29 107 63 57 35 115 67 130 70
18 5 25 12 22 21 -3 8 -2 16 3 19 4 3 9 -6 10 -21 0 -14 9 -29 18 -35 15 -8
15 -11 -3 -30 -21 -23 -52 -106 -51 -135 0 -18 49 82 49 102 1 35 18 36 52 4
29 -26 35 -38 31 -60 -4 -20 0 -27 16 -33 12 -3 21 -11 21 -16 0 -5 9 -9 20
-9 16 0 20 7 20 35 0 46 18 46 69 0 29 -27 47 -35 76 -35 28 0 36 4 32 14 -6
16 13 26 49 26 15 0 24 6 24 16 0 9 6 14 13 11 10 -4 13 2 9 19 -2 14 0 24 7
24 6 0 11 7 11 15 0 7 7 18 16 23 9 5 14 14 10 21 -8 13 -55 14 -75 2 -9 -6
-24 -5 -38 2 -19 8 -30 7 -55 -7 -18 -11 -33 -15 -37 -9 -3 5 -14 12 -24 16
-10 4 -16 11 -12 17 3 5 3 26 -1 45 -5 31 -8 34 -22 23 -12 -10 -16 -10 -19 0
-3 6 -11 12 -19 12 -9 0 -12 5 -9 11 5 7 -4 9 -25 7 -43 -4 -50 17 -9 26 63
12 94 6 152 -30 31 -21 57 -41 57 -45 0 -5 14 -9 30 -9 57 0 21 62 -38 65 -10
1 -27 2 -40 3 -13 1 -20 7 -17 12 3 6 3 10 -2 10 -4 0 -6 27 -5 60 2 33 0 60
-6 60 -5 0 -23 14 -40 30 -18 17 -36 30 -40 30 -5 0 -17 17 -28 38 -26 52 -44
72 -64 72 -18 0 -20 -29 -5 -84 l8 -29 -45 7 c-36 5 -49 3 -63 -10 -9 -10 -20
-13 -23 -8 -9 12 -42 33 -64 40 -9 3 -18 15 -20 25 -3 19 -4 19 -16 -2 -11
-17 -11 -20 0 -13 7 4 5 -2 -6 -14 -10 -12 -23 -19 -27 -16 -11 6 0 -26 15
-45 8 -11 8 -13 -2 -7 -19 11 -44 65 -36 78 4 6 3 8 -4 4 -16 -10 -23 38 -20
147 2 87 -1 100 -21 128 -21 29 -22 32 -7 67 8 20 15 31 15 24 1 -7 -4 -23
-10 -34 -16 -30 11 -56 43 -41 17 7 33 7 57 -1 55 -18 50 -34 -11 -32 -48 1
-53 -1 -50 -19 1 -11 3 -28 4 -37 2 -19 14 -24 20 -9 2 6 17 6 38 1 36 -8 35
-10 -13 -16 -25 -3 -57 -24 -57 -38 0 -3 13 -6 29 -6 17 0 33 -4 36 -10 3 -5
11 -10 17 -10 7 0 6 6 -2 15 -10 13 -9 15 9 15 11 0 21 -4 21 -10 0 -23 21 -7
35 26 21 51 19 89 -10 149 -25 53 -43 68 -80 69 -11 1 -20 8 -20 16 0 10 9 15
27 14 15 -1 27 2 26 5 -3 25 3 33 15 22 8 -6 18 -7 22 -3 5 4 5 -1 2 -10 -4
-12 -2 -15 8 -12 12 5 27 28 29 46 1 4 11 16 22 27 21 19 23 19 38 2 9 -10 16
-25 16 -34 0 -10 8 -17 20 -17 23 0 24 7 10 45 -8 20 -7 30 4 40 17 17 77 11
92 -10 13 -17 49 -21 38 -4 -5 8 -1 8 14 0 20 -11 52 -6 52 8 0 8 74 -2 102
-13 9 -4 19 -18 22 -30 3 -13 25 -44 50 -68 51 -52 61 -69 70 -122 6 -33 47
-128 75 -176 5 -8 15 -28 22 -44 13 -28 14 -25 20 62 9 124 22 158 83 215 57
53 84 64 116 47 67 -36 48 -209 -35 -306 -54 -63 -59 -103 -20 -160 14 -20 25
-44 26 -53 1 -9 5 -5 9 9 13 39 11 105 -2 121 -7 7 13 -11 45 -41 l57 -54 0
377 0 377 -595 0 -595 0 0 -565z m160 135 c0 -13 -5 -18 -15 -14 -8 4 -15 12
-15 20 0 8 7 14 15 14 8 0 15 -9 15 -20z m288 -294 c15 -28 33 -47 48 -50 20
-5 45 -50 33 -60 -2 -2 -33 -6 -69 -9 -38 -3 -57 -1 -45 3 16 7 12 9 -17 9
-31 1 -36 -2 -31 -16 5 -13 2 -15 -11 -10 -10 4 -26 7 -37 7 -12 0 -19 7 -19
18 0 10 -3 22 -7 26 -14 14 -9 48 10 58 14 7 17 7 13 -1 -4 -6 -4 -11 0 -11
10 0 78 52 87 67 13 21 21 16 45 -31z m-224 -21 c3 -8 1 -15 -4 -15 -6 0 -10
7 -10 15 0 8 2 15 4 15 2 0 6 -7 10 -15z m36 -35 c0 -5 -4 -10 -10 -10 -5 0
-10 5 -10 10 0 6 5 10 10 10 6 0 10 -4 10 -10z m-75 -38 c-3 -3 -11 0 -18 7
-9 10 -8 11 6 5 10 -3 15 -9 12 -12z m69 -11 c3 -5 -1 -11 -9 -14 -9 -4 -12
-1 -8 9 6 16 10 17 17 5z m-56 -31 c8 -17 17 -28 22 -25 4 3 7 -3 6 -12 0 -9
5 -18 13 -21 8 -3 11 0 7 7 -12 19 0 12 20 -11 19 -22 19 -22 0 -8 -18 14 -19
13 -12 -5 7 -18 5 -18 -17 3 -27 25 -72 102 -60 102 4 0 14 -14 21 -30z m222
-290 c0 -5 -4 -10 -10 -10 -5 0 -10 5 -10 10 0 6 5 10 10 10 6 0 10 -4 10 -10z"/>
<path d="M311 383 c0 -11 3 -13 6 -5 2 6 9 12 14 12 6 0 7 -4 4 -10 -3 -6 1
-7 10 -3 13 5 14 7 3 14 -21 14 -38 10 -37 -8z"/>
<path d="M410 908 c-123 -15 -145 -22 -148 -44 -2 -11 8 -30 23 -44 14 -13 25
-32 25 -42 0 -10 4 -18 9 -18 5 0 12 -13 16 -29 5 -23 13 -30 41 -36 37 -6
149 3 140 13 -3 3 -25 6 -48 7 -24 2 -50 3 -57 4 -30 2 5 18 62 29 38 8 66 8
83 2 42 -16 51 -11 19 10 -46 31 -134 53 -182 46 -46 -6 -57 6 -21 25 25 13
105 15 166 4 56 -10 52 18 -8 56 -39 24 -50 26 -120 17z m33 -133 c8 -19 -4
-25 -31 -18 -18 4 -20 8 -11 19 15 18 35 18 42 -1z"/>
<path d="M1084 895 c9 -9 20 -34 26 -57 8 -27 15 -37 21 -31 14 14 -7 89 -27
97 -27 11 -36 6 -20 -9z"/>
<path d="M990 822 c0 -10 47 -46 73 -55 32 -12 17 12 -23 38 -43 27 -50 29
-50 17z"/>
<path d="M994 710 c-1 -40 11 -54 22 -25 4 8 16 15 28 15 20 1 19 2 -7 25 -15
14 -31 25 -35 25 -4 0 -8 -18 -8 -40z"/>
<path d="M790 180 c0 -5 5 -10 10 -10 6 0 10 5 10 10 0 6 -4 10 -10 10 -5 0
-10 -4 -10 -10z"/>
<path d="M810 40 c-25 -21 -40 -39 -35 -40 6 0 29 18 50 40 50 51 43 51 -15 0z"/>
</g>
</svg>
